<svg width="406" height="206" viewBox="0 0 406 206" fill="none" xmlns="http://www.w3.org/2000/svg">
<rect x="3" y="3" width="400" height="200" fill="#1E1E1E" stroke="#2F2F2F" stroke-width="5" stroke-linecap="round" stroke-dasharray="10 10"/>
<rect x="186" y="85" width="50" height="50" rx="10" stroke="#2F2F2F" stroke-width="5" stroke-linecap="round"/>
<path fill-rule="evenodd" clip-rule="evenodd" d="M177.13 74.0681C178.011 73.7029 178.978 73.5 180 73.5H183.75C185.131 73.5 186.25 72.3807 186.25 71C186.25 69.6193 185.131 68.5 183.75 68.5H180C178.31 68.5 176.692 68.8369 175.214 69.4495C173.939 69.9784 173.334 71.441 173.863 72.7164C174.392 73.9918 175.854 74.597 177.13 74.0681ZM191.25 68.5C189.869 68.5 188.75 69.6193 188.75 71C188.75 72.3807 189.869 73.5 191.25 73.5H198.75C200.131 73.5 201.25 72.3807 201.25 71C201.25 69.6193 200.131 68.5 198.75 68.5H191.25ZM206.25 68.5C204.869 68.5 203.75 69.6193 203.75 71C203.75 72.3807 204.869 73.5 206.25 73.5H210C211.022 73.5 211.989 73.7029 212.87 74.0681C214.146 74.597 215.608 73.9918 216.137 72.7164C216.666 71.441 216.061 69.9784 214.786 69.4495C213.308 68.8369 211.69 68.5 210 68.5H206.25ZM173.068 78.1298C173.597 76.8544 172.992 75.3917 171.716 74.8628C170.441 74.3339 168.978 74.9391 168.449 76.2145C167.837 77.6918 167.5 79.3097 167.5 81V84.75C167.5 86.1307 168.619 87.25 170 87.25C171.381 87.25 172.5 86.1307 172.5 84.75V81C172.5 79.9785 172.703 79.0106 173.068 78.1298ZM221.551 76.2145C221.022 74.9391 219.559 74.3339 218.284 74.8628C217.008 75.3917 216.403 76.8544 216.932 78.1298C217.297 79.0106 217.5 79.9785 217.5 81V84.75C217.5 84.8344 217.504 84.9178 217.512 85H222.488C222.496 84.9178 222.5 84.8344 222.5 84.75V81C222.5 79.3097 222.163 77.6918 221.551 76.2145ZM186 119.909V122.091C185.595 122.925 184.74 123.5 183.75 123.5H180C178.31 123.5 176.692 123.163 175.214 122.551C173.939 122.022 173.334 120.559 173.863 119.284C174.392 118.008 175.854 117.403 177.13 117.932C178.011 118.297 178.978 118.5 180 118.5H183.75C184.74 118.5 185.595 119.075 186 119.909ZM172.5 92.25C172.5 90.8693 171.381 89.75 170 89.75C168.619 89.75 167.5 90.8693 167.5 92.25V99.75C167.5 101.131 168.619 102.25 170 102.25C171.381 102.25 172.5 101.131 172.5 99.75V92.25ZM172.5 107.25C172.5 105.869 171.381 104.75 170 104.75C168.619 104.75 167.5 105.869 167.5 107.25V111C167.5 112.69 167.837 114.308 168.449 115.786C168.978 117.061 170.441 117.666 171.716 117.137C172.992 116.608 173.597 115.146 173.068 113.87C172.703 112.989 172.5 112.022 172.5 111V107.25Z" fill="#2F2F2F"/>
<path d="M212.85 121.5C212.789 121.5 212.729 121.488 212.67 121.467C212.545 121.418 212.445 121.322 212.391 121.199L209.473 114.453L205.842 117.865C205.697 118.002 205.484 118.037 205.301 117.959C205.119 117.881 205 117.699 205 117.5V101C205 100.801 205.117 100.621 205.301 100.541C205.482 100.463 205.695 100.498 205.842 100.635L217.842 111.834C217.986 111.969 218.037 112.178 217.973 112.363C217.908 112.551 217.74 112.682 217.543 112.699L212.451 113.137L215.504 119.793C215.559 119.912 215.564 120.051 215.518 120.176C215.471 120.301 215.379 120.4 215.258 120.455L213.057 121.455C212.99 121.484 212.922 121.5 212.85 121.5Z" fill="#2F2F2F"/>
</svg>
