<svg width="250" height="250" viewBox="0 0 250 250" fill="none" xmlns="http://www.w3.org/2000/svg">
<rect width="250" height="250" fill="#22242A"/>
<path d="M125 200.4C94.4667 200.4 72 193.8 57.6 180.6C43.2 167.267 36 148.6 36 124.6C36 100.867 43.1333 82.3333 57.4 69C71.8 55.6667 94.3333 49 125 49C155.8 49 178.333 55.6667 192.6 69C207 82.3333 214.2 100.867 214.2 124.6C214.2 148.733 207.067 167.4 192.8 180.6C178.533 193.8 155.933 200.4 125 200.4ZM125 159.6C139.8 159.6 150.467 156.8 157 151.2C163.533 145.467 166.8 136.6 166.8 124.6C166.8 112.867 163.533 104.133 157 98.4C150.467 92.6667 139.8 89.8 125 89.8C110.333 89.8 99.7333 92.6667 93.2 98.4C86.6667 104.133 83.4 112.867 83.4 124.6C83.4 136.467 86.6667 145.267 93.2 151C99.7333 156.733 110.333 159.6 125 159.6Z" fill="#1777FF"/>
</svg>
